<svg
   xmlns:dc="http://purl.org/dc/elements/1.1/"
   xmlns:cc="http://creativecommons.org/ns#"
   xmlns:rdf="http://www.w3.org/1999/02/22-rdf-syntax-ns#"
   xmlns:svg="http://www.w3.org/2000/svg"
   xmlns="http://www.w3.org/2000/svg"
   xmlns:sodipodi="http://sodipodi.sourceforge.net/DTD/sodipodi-0.dtd"
   xmlns:inkscape="http://www.inkscape.org/namespaces/inkscape"
   id="svg2"
   height="320"
   width="320"
   version="1.1"
   viewBox="0 0 320 320.00001"
   inkscape:version="0.91 r13725"
   sodipodi:docname="logo_white.svg">
  <metadata
     id="metadata13">
    <rdf:RDF>
      <cc:Work
         rdf:about="">
        <dc:format>image/svg+xml</dc:format>
        <dc:type
           rdf:resource="http://purl.org/dc/dcmitype/StillImage" />
        <dc:title></dc:title>
      </cc:Work>
    </rdf:RDF>
  </metadata>
  <defs
     id="defs11" />
  <sodipodi:namedview
     pagecolor="#ffffff"
     bordercolor="#666666"
     borderopacity="1"
     objecttolerance="10"
     gridtolerance="10"
     guidetolerance="10"
     inkscape:pageopacity="0"
     inkscape:pageshadow="2"
     inkscape:window-width="1855"
     inkscape:window-height="1056"
     id="namedview9"
     showgrid="false"
     inkscape:zoom="2.5479793"
     inkscape:cx="160.67797"
     inkscape:cy="161.08707"
     inkscape:window-x="65"
     inkscape:window-y="24"
     inkscape:window-maximized="1"
     inkscape:current-layer="layer1" />
  <g
     id="layer1"
     transform="translate(0 -732.36)"
     stroke-width="28">
    <g
       id="g5175-6-32"
       transform="matrix(1.0471 1.0606 -1.0484 1.0619 931.69 -208.55)" />
    <g
       id="g4241"
       transform="matrix(0.70352347,-0.71067202,0.71067202,0.70352347,-587.15889,377.88419)"
       style="fill:#ffffff">
      <path
         id="path4486-0-9-6-9-7-6-5"
         style="color:#000000;text-indent:0;text-decoration:none;text-decoration-line:none;text-decoration-style:solid;text-decoration-color:#000000;text-transform:none;block-progression:tb;white-space:normal;isolation:auto;mix-blend-mode:normal;solid-color:#000000;fill-rule:evenodd;color-rendering:auto;image-rendering:auto;shape-rendering:auto"
         d="m 66.992,835.19 c -1.492,1.5583 -2.3663,3.7103 -2.2576,6.0713 0.0962,2.0447 0.91322,4.0204 2.3372,5.5177 6.8051,6.8559 20.223,20.223 20.223,20.223 l 11.844,-11.83 c 0,0 -12.973,-12.961 -20.176,-20.171 -1.604,-1.6325 -3.7498,-2.3141 -6.012,-2.3243 -2.3583,-0.0112 -4.4673,0.95389 -5.9592,2.5122 z M 99.139,855.173 62.5,891.812 c -3.9751,3.976 -3.9751,10.421 0,14.397 l 18.156,18.156 31.753,31.753 30.478,30.478 c 3.9758,3.9759 10.422,3.9763 14.398,0 l 24.791,-24.791 37.914,-37.914 36.639,-36.639 c 3.9754,-3.9764 3.975,-10.422 -6.7e-4,-14.398 l -18.63,-18.63 -31.75,-31.76 -30.01,-30 c -3.976,-3.9751 -10.421,-3.9751 -14.397,0 l -24.79,24.79 -37.91,37.91 z m 37.911,-37.91 c 0,0 -12.973,-12.961 -20.176,-20.171 -1.604,-1.6325 -3.7498,-2.3141 -6.012,-2.3243 -4.7166,-0.0226 -8.4341,3.8616 -8.2169,8.5834 0.0962,2.0447 0.91322,4.0204 2.3372,5.5177 6.8051,6.8559 20.223,20.223 20.223,20.223 l 11.844,-11.83 z m 69.193,5.2132 c 0,0 12.961,-12.973 20.171,-20.176 1.6325,-1.604 2.3141,-3.7498 2.3243,-6.012 0.0225,-4.7166 -3.8616,-8.4341 -8.5834,-8.2169 -2.0447,0.0962 -4.0204,0.91322 -5.5177,2.3372 -6.8559,6.8051 -20.223,20.223 -20.223,20.223 l 11.83,11.844 z m 31.753,31.753 c 0,0 12.961,-12.973 20.171,-20.176 1.6325,-1.604 2.314,-3.7498 2.3243,-6.012 0.0225,-4.7166 -3.8616,-8.4341 -8.5834,-8.2169 -2.0447,0.0962 -4.0204,0.91323 -5.5177,2.3372 -6.8559,6.8051 -20.223,20.223 -20.223,20.223 l 11.83,11.844 z m -18.009,69.667 c 0,0 12.973,12.961 20.178,20.169 1.604,1.6324 3.7498,2.314 6.012,2.3243 4.7166,0.0225 8.4342,-3.8615 8.2169,-8.5834 l -0.002,0.002 c -0.0962,-2.0447 -0.91415,-4.0214 -2.3382,-5.5186 -6.8051,-6.8559 -20.222,-20.222 -20.222,-20.222 l -11.844,11.83 z m -37.914,37.914 c 0,0 12.973,12.961 20.178,20.169 1.604,1.6324 3.7498,2.314 6.012,2.3242 4.7166,0.023 8.4342,-3.8615 8.2169,-8.5834 l -0.002,0 c -0.0962,-2.0447 -0.91323,-4.0205 -2.3372,-5.5177 -6.8051,-6.8559 -20.223,-20.223 -20.223,-20.223 l -11.844,11.83 z m -69.667,-5.6871 c 0,0 -12.961,12.973 -20.169,20.178 -1.6324,1.604 -2.314,3.7498 -2.3243,6.012 -0.02251,4.7166 3.8615,8.4342 8.5834,8.2169 l -0.0019,0 c 2.0447,-0.096 4.0204,-0.9132 5.5177,-2.3373 6.8561,-6.8048 20.223,-20.223 20.223,-20.223 l -11.82,-11.84 z m -31.743,-31.74 c 0,0 -12.961,12.973 -20.169,20.178 -1.6324,1.604 -2.314,3.7498 -2.3243,6.012 -0.02251,4.7167 3.8615,8.4342 8.5834,8.2169 l -0.0019,0 c 2.0447,-0.0962 4.0204,-0.91322 5.5177,-2.3372 6.8561,-6.8047 20.223,-20.223 20.223,-20.223 l -11.829,-11.85 z m 87.237,-90.554 c 1.6794,-1.7064 3.9669,-2.6599 6.2971,-2.626 1.6628,0.0237 3.253,0.55012 4.5625,1.5097 l 16.499,12.1 c 3.2009,2.297 4.1445,6.6589 2.2308,10.312 -1.9137,3.6528 -6.1234,5.5243 -9.9506,4.4227 l 6.124,23.948 c 1.1128,4.3517 -1.564,8.9677 -5.9833,10.317 l -44.642,13.631 8.2456,31.883 c 1.1728,4.3696 -1.5017,9.0445 -5.9546,10.407 -4.4529,1.3625 -8.9756,-1.1106 -10.068,-5.5047 l -10.282,-39.769 c -1.1265,-4.3556 1.5493,-8.9847 5.9759,-10.338 l 44.661,-13.637 -4.1219,-16.118 c -2.7634,3.0643 -7.2335,3.8084 -10.586,1.7615 -3.3531,-2.0469 -4.6144,-6.2896 -2.9861,-10.047 l 8.1169,-19.454 c 0.43322,-1.0376 1.0673,-1.9888 1.8624,-2.7973 z"
         inkscape:connector-curvature="0" />
    </g>
    <rect
       style="fill:#000000;fill-opacity:0"
       id="rect3358"
       width="40.424191"
       height="39.246788"
       x="19.230925"
       y="765.466" />
    <rect
       style="fill:#000000;fill-opacity:0"
       id="rect3360"
       width="13.343907"
       height="1.5698714"
       x="9.0267611"
       y="842.38971" />
    <path
       style="fill:#ffffff;fill-opacity:1"
       d="M 100.86328 92.369141 L 100.86328 230.125 L 210.36328 230.125 L 210.36328 92.369141 L 100.86328 92.369141 z "
       transform="translate(0,732.36)"
       id="rect3374" />
  </g>
</svg>
